<svg style="display: none;" aria-hidden="true" xmlns="http://www.w3.org/2000/svg" xmlns:xlink="http://www.w3.org/1999/xlink"><symbol viewBox="0 0 30 30" id="arrow-left-short"><path fill-rule="evenodd" clip-rule="evenodd" d="M22.5002 15C22.5002 15.2486 22.4014 15.4871 22.2256 15.6629C22.0498 15.8387 21.8114 15.9375 21.5627 15.9375H10.7008L14.7265 19.9612C14.8136 20.0484 14.8828 20.1519 14.9299 20.2657C14.9771 20.3796 15.0014 20.5017 15.0014 20.625C15.0014 20.7482 14.9771 20.8703 14.9299 20.9842C14.8828 21.0981 14.8136 21.2015 14.7265 21.2887C14.6393 21.3759 14.5358 21.445 14.4219 21.4922C14.308 21.5394 14.186 21.5636 14.0627 21.5636C13.9394 21.5636 13.8174 21.5394 13.7035 21.4922C13.5896 21.445 13.4861 21.3759 13.399 21.2887L7.77396 15.6637C7.68665 15.5766 7.61739 15.4732 7.57012 15.3593C7.52286 15.2454 7.49854 15.1233 7.49854 15C7.49854 14.8767 7.52286 14.7545 7.57012 14.6407C7.61739 14.5268 7.68665 14.4233 7.77396 14.3362L13.399 8.71121C13.575 8.53518 13.8138 8.43628 14.0627 8.43628C14.3117 8.43628 14.5504 8.53518 14.7265 8.71121C14.9025 8.88725 15.0014 9.12601 15.0014 9.37496C15.0014 9.62392 14.9025 9.86268 14.7265 10.0387L10.7008 14.0625H21.5627C21.8114 14.0625 22.0498 14.1612 22.2256 14.3371C22.4014 14.5129 22.5002 14.7513 22.5002 15Z"/></symbol><symbol viewBox="0 0 24 24" id="location"><path d="M12 21C10.7369 19.9226 9.56619 18.7415 8.5 17.469C6.9 15.558 5 12.712 5 9.99997C4.99931 8.61493 5.40951 7.26082 6.17869 6.109C6.94788 4.95718 8.04147 4.05943 9.32107 3.52937C10.6007 2.99931 12.0087 2.86076 13.3671 3.13126C14.7255 3.40176 15.9731 4.06915 16.952 5.04897C17.6038 5.69783 18.1203 6.46951 18.4719 7.31934C18.8234 8.16918 19.0029 9.0803 19 9.99997C19 12.712 17.1 15.558 15.5 17.469C14.4338 18.7415 13.2631 19.9226 12 21ZM12 6.99997C11.2044 6.99997 10.4413 7.31604 9.87868 7.87865C9.31607 8.44126 9 9.20432 9 9.99997C9 10.7956 9.31607 11.5587 9.87868 12.1213C10.4413 12.6839 11.2044 13 12 13C12.7957 13 13.5587 12.6839 14.1213 12.1213C14.6839 11.5587 15 10.7956 15 9.99997C15 9.20432 14.6839 8.44126 14.1213 7.87865C13.5587 7.31604 12.7957 6.99997 12 6.99997Z"/></symbol><symbol id="logo" viewBox="0 0 60 60" xml:space="preserve"><style>.st0{fill-rule:evenodd;clip-rule:evenodd;fill:#ec1b2e}</style><g id="cFrame_42"><path id="cSubtract" d="M52.5,5.5c0-0.5-0.3-1-0.7-1.3C51.5,4,49.8,4,30,4C9.5,4,8.1,4,7.8,4.5c0,0.1-0.1,0.2-0.1,0.3 c-0.4,0.7-0.3,1,1.3,3.8c3.1,5.3,4.8,8.2,4.8,8.3c0,0-2.9,0.1-6.4,0.1c-6.3,0-6.4,0-6.7,0.3C0.3,17.4,0,18,0,18.4 c0,0.3,0.8,1.7,3.2,5.8c0.5,0.9,1.7,2.9,2.6,4.4c0.9,1.5,2.6,4.5,3.8,6.5c1.2,2,3.5,6,5.2,8.9c1.7,2.9,3.3,5.7,3.6,6.2 s1.1,2,1.8,3.1c1.3,2.3,1.6,2.6,2.5,2.6c0.4,0,0.6-0.1,0.9-0.3c0.2-0.2,1.4-2.2,2.7-4.4c3.5-6.1,3.8-6.5,3.8-6.5 c0,0,0.3,0.5,0.7,1.1c3.6,6.3,5.5,9.5,5.8,9.8c0.3,0.3,0.5,0.3,0.9,0.3c0.8,0,1.1-0.3,2.7-3c1.5-2.7,2.9-5,7.5-12.9 c1.8-3.1,4.5-7.7,5.9-10.1c1.4-2.4,3.3-5.7,4.2-7.3c2.4-4.1,2.4-4.1,2.2-4.7c-0.1-0.3-0.3-0.6-0.5-0.8L59,16.9h-6.4 c-5.1,0-6.4,0-6.3-0.2c0.1-0.2,0.9-1.6,4.5-7.9C52,6.8,52.5,5.8,52.5,5.5z M20.7,14.5c-0.8-1.3-1.5-2.6-1.7-2.9L18.7,11H30h11.3 l-0.4,0.7c-0.2,0.4-1,1.7-1.7,2.9L38,16.9l-8,0l-8,0L20.7,14.5z M12.1,25.4c-0.3-0.5-0.7-1.1-0.7-1.3l-0.2-0.3l3.4,0l3.4,0l4,6.8 c2.4,4.2,3.9,6.9,3.9,7c-0.1,0.2-3.1,5.4-3.2,5.6c-0.1,0.1-0.4-0.4-0.8-1.1c-1.2-2-3.9-6.6-6.6-11.3C13.8,28.5,12.4,26,12.1,25.4z M30,30.4c-0.1,0-3.5-5.8-3.7-6.3c-0.1-0.2,0.1-0.2,3.7-0.2c3.2,0,3.8,0,3.7,0.2c0,0.1-0.7,1.3-1.5,2.7c-0.8,1.4-1.6,2.8-1.8,3.1 C30.3,30.1,30.1,30.4,30,30.4z M38.6,29.8c1.7-3,3.2-5.5,3.3-5.7c0.2-0.3,0.2-0.3,3.5-0.3c3.1,0,3.3,0,3.3,0.2 c-0.1,0.2-1,1.9-4.5,7.8c-0.7,1.3-2.5,4.3-3.9,6.8c-1.4,2.5-2.6,4.5-2.7,4.6c-0.1,0.1-3.4-5.4-3.4-5.7c0-0.1,0.3-0.6,0.7-1.3 C35.2,35.7,36.9,32.8,38.6,29.8z"/></g></symbol><symbol viewBox="0 0 24 24" id="mail"><path d="M6 4.5C5.20435 4.5 4.44129 4.81607 3.87868 5.37868C3.31607 5.94129 3 6.70435 3 7.5V7.8015L12 12.648L21 7.803V7.5C21 6.70435 20.6839 5.94129 20.1213 5.37868C19.5587 4.81607 18.7956 4.5 18 4.5H6ZM21 9.5055L12.3555 14.16C12.2462 14.2188 12.1241 14.2496 12 14.2496C11.8759 14.2496 11.7538 14.2188 11.6445 14.16L3 9.5055V16.5C3 17.2956 3.31607 18.0587 3.87868 18.6213C4.44129 19.1839 5.20435 19.5 6 19.5H18C18.7956 19.5 19.5587 19.1839 20.1213 18.6213C20.6839 18.0587 21 17.2956 21 16.5V9.5055Z"/></symbol><symbol viewBox="0 0 24 24" id="phone"><path d="M15.2477 16.11L16.9277 14.43C17.154 14.2066 17.4403 14.0536 17.7518 13.9897C18.0634 13.9258 18.3867 13.9537 18.6827 14.07L20.7302 14.8875C21.0293 15.0089 21.2858 15.2162 21.4673 15.4831C21.6488 15.75 21.7473 16.0647 21.7502 16.3875V20.1375C21.7485 20.3571 21.7023 20.5741 21.6145 20.7753C21.5267 20.9766 21.3991 21.158 21.2393 21.3087C21.0796 21.4594 20.891 21.5761 20.6849 21.652C20.4788 21.7278 20.2595 21.7612 20.0402 21.75C5.69272 20.8575 2.79772 8.70753 2.25022 4.05753C2.22481 3.82918 2.24803 3.59804 2.31836 3.37931C2.38869 3.16058 2.50453 2.95922 2.65827 2.78848C2.81201 2.61774 3.00016 2.48148 3.21034 2.38868C3.42052 2.29587 3.64797 2.24862 3.87772 2.25003H7.50022C7.82348 2.25099 8.13906 2.34863 8.40637 2.5304C8.67368 2.71217 8.8805 2.96976 9.00022 3.27003L9.81772 5.31753C9.93791 5.61233 9.96858 5.93601 9.90588 6.24814C9.84319 6.56027 9.68992 6.847 9.46522 7.07253L7.78522 8.75253C7.78522 8.75253 8.75272 15.3 15.2477 16.11Z"/></symbol><symbol viewBox="0 0 30 30" id="telegram"><path d="M25.8312 4.64627L3.66875 13.1925C2.15625 13.8 2.165 14.6438 3.39125 15.02L9.08125 16.795L22.2462 8.48877C22.8687 8.11002 23.4375 8.31377 22.97 8.72877L12.3037 18.355H12.3012L12.3037 18.3563L11.9112 24.2213C12.4862 24.2213 12.74 23.9575 13.0625 23.6463L15.8262 20.9588L21.575 25.205C22.635 25.7888 23.3962 25.4888 23.66 24.2238L27.4337 6.43877C27.82 4.89002 26.8425 4.18877 25.8312 4.64627Z"/></symbol><symbol viewBox="0 0 30 30" id="vk"><g clip-path="url(#gclip0_13354_481)"><path fill-rule="evenodd" clip-rule="evenodd" d="M26.7031 18.4468C26.7031 18.4468 29.1286 20.8423 29.7286 21.9508C29.7403 21.9668 29.7494 21.9845 29.7556 22.0033C30.0001 22.4128 30.0601 22.7338 29.9401 22.9708C29.7376 23.3623 29.0521 23.5588 28.8196 23.5753H24.5326C24.2341 23.5753 23.6131 23.4973 22.8571 22.9753C22.2796 22.5718 21.7051 21.9073 21.1486 21.2578C20.3176 20.2933 19.5991 19.4563 18.8716 19.4563C18.7798 19.4561 18.6885 19.4713 18.6016 19.5013C18.0511 19.6753 17.3521 20.4598 17.3521 22.5493C17.3521 23.2033 16.8361 23.5753 16.4746 23.5753H14.5111C13.8421 23.5753 10.3591 23.3413 7.27064 20.0848C3.48614 16.0978 0.0871351 8.09982 0.0541351 8.02932C-0.157365 7.51182 0.286635 7.22982 0.766635 7.22982H5.09564C5.67614 7.22982 5.86514 7.58082 5.99714 7.89582C6.15014 8.25732 6.71714 9.70332 7.64714 11.3278C9.15314 13.9708 10.0786 15.0463 10.8181 15.0463C10.9571 15.0467 11.0937 15.0105 11.2141 14.9413C12.1801 14.4103 12.0001 10.9603 11.9551 10.2493C11.9551 10.1113 11.9536 8.70882 11.4586 8.03082C11.1046 7.54482 10.5016 7.35582 10.1371 7.28682C10.2346 7.14582 10.4416 6.92982 10.7071 6.80232C11.3686 6.47232 12.5641 6.42432 13.7506 6.42432H14.4091C15.6961 6.44232 16.0291 6.52482 16.4971 6.64332C17.4391 6.86832 17.4571 7.47882 17.3746 9.55782C17.3506 10.1518 17.3251 10.8208 17.3251 11.6083C17.3251 11.7763 17.3176 11.9638 17.3176 12.1543C17.2891 13.2208 17.2516 14.4223 18.0046 14.9158C18.1023 14.9767 18.2151 15.0089 18.3301 15.0088C18.5911 15.0088 19.3726 15.0088 21.4921 11.3713C22.4221 9.76482 23.1421 7.87032 23.1916 7.72782C23.2336 7.64832 23.3596 7.42482 23.5126 7.33482C23.6215 7.27691 23.7434 7.24798 23.8666 7.25082H28.9591C29.5141 7.25082 29.8906 7.33482 29.9641 7.54482C30.0871 7.88532 29.9401 8.92482 27.6151 12.0688C27.2236 12.5923 26.8801 13.0453 26.5786 13.4413C24.4711 16.2073 24.4711 16.3468 26.7031 18.4468Z"/></g><defs><clipPath id="gclip0_13354_481"><path d="M0 0H30V30H0z"/></clipPath></defs></symbol><symbol viewBox="0 0 30 30" id="wechat"><g><path d="M20.955 27.0542C15.9581 27.0542 11.9062 23.6792 11.9062 19.5204C11.9062 15.3579 15.9544 11.9829 20.9513 11.9829C25.9481 11.9829 30 15.3579 30 19.5204C30 21.7892 28.7812 23.8348 26.8763 25.2129C26.7703 25.2882 26.6912 25.3954 26.6507 25.519C26.6102 25.6425 26.6104 25.7758 26.6513 25.8992L27.06 27.4179C27.0853 27.4891 27.1035 27.5626 27.1144 27.6373C27.1125 27.7172 27.0799 27.7934 27.0233 27.85C26.9667 27.9065 26.8906 27.9391 26.8106 27.941C26.749 27.9387 26.6893 27.9192 26.6381 27.8848L24.6562 26.741C24.5111 26.6538 24.3456 26.606 24.1763 26.6023C24.0861 26.6028 23.9964 26.616 23.91 26.6417C22.9493 26.9174 21.9545 27.0563 20.955 27.0542ZM16.995 17.891C17.1091 18.0661 17.2665 18.2088 17.4519 18.3052C17.6374 18.4016 17.8446 18.4485 18.0534 18.4412C18.2623 18.434 18.4658 18.3729 18.6441 18.2639C18.8224 18.155 18.9696 18.0017 19.0713 17.8192C19.173 17.6366 19.2258 17.4308 19.2246 17.2218C19.2233 17.0128 19.1682 16.8077 19.0644 16.6263C18.9605 16.4449 18.8116 16.2934 18.6321 16.1865C18.4525 16.0796 18.2483 16.0208 18.0394 16.016C17.8801 16.0158 17.7223 16.047 17.5751 16.1079C17.4279 16.1688 17.2942 16.2582 17.1817 16.3709C17.0691 16.4836 16.98 16.6175 16.9193 16.7648C16.8586 16.9121 16.8276 17.0699 16.8281 17.2292C16.8162 17.4618 16.8751 17.6925 16.9969 17.891H16.995ZM23.055 17.8929C23.1697 18.068 23.3278 18.2103 23.5138 18.3061C23.6999 18.4019 23.9076 18.4478 24.1167 18.4394C24.3259 18.431 24.5292 18.3686 24.707 18.2582C24.8848 18.1478 25.031 17.9933 25.1313 17.8096C25.2316 17.6259 25.2825 17.4194 25.2793 17.2101C25.276 17.0009 25.2185 16.796 25.1125 16.6156C25.0065 16.4351 24.8556 16.2852 24.6744 16.1805C24.4932 16.0758 24.288 16.0197 24.0788 16.0179C23.7587 16.0184 23.4518 16.1458 23.2255 16.3721C22.9991 16.5985 22.8717 16.9053 22.8713 17.2254C22.8641 17.4613 22.9281 17.6939 23.055 17.8929Z"/><path d="M0 12.7987C0 15.5269 1.46437 17.9831 3.75187 19.6538C3.87954 19.7435 3.97468 19.8723 4.02302 20.0207C4.07135 20.1691 4.0703 20.3291 4.02 20.4769L3.71813 21.6019L3.53063 22.3013C3.49807 22.3854 3.47786 22.4738 3.47062 22.5638C3.47038 22.6113 3.47957 22.6585 3.49766 22.7025C3.51576 22.7465 3.54241 22.7865 3.57606 22.8202C3.60971 22.8538 3.64971 22.8805 3.69372 22.8986C3.73774 22.9167 3.78491 22.9259 3.8325 22.9256C3.90562 22.9256 3.97687 22.9069 4.04063 22.8713L6.41813 21.4969C6.59292 21.3924 6.79202 21.3355 6.99563 21.3319C7.10437 21.3319 7.21312 21.3488 7.31625 21.3787C8.30851 21.6635 9.33156 21.8271 10.3631 21.8662C10.1415 21.1041 10.0298 20.3143 10.0312 19.5206C10.0312 14.0156 15.2531 10.1081 20.9513 10.1081C21.045 10.1081 21.1388 10.1081 21.2325 10.1119C19.8506 6.42938 15.735 3.75 10.8675 3.75C4.8675 3.75 0 7.8 0 12.7987ZM8.685 9.88312C8.685 10.266 8.53289 10.6333 8.26214 10.904C7.99138 11.1748 7.62416 11.3269 7.24125 11.3269C6.85834 11.3269 6.49112 11.1748 6.22036 10.904C5.94961 10.6333 5.7975 10.266 5.7975 9.88312C5.7975 9.50022 5.94961 9.133 6.22036 8.86224C6.49112 8.59148 6.85834 8.43937 7.24125 8.43937C7.62416 8.43937 7.99138 8.59148 8.26214 8.86224C8.53289 9.133 8.685 9.50022 8.685 9.88312ZM15.9506 9.88312C15.9506 10.266 15.7985 10.6333 15.5278 10.904C15.257 11.1748 14.8898 11.3269 14.5069 11.3269C14.124 11.3269 13.7567 11.1748 13.486 10.904C13.2152 10.6333 13.0631 10.266 13.0631 9.88312C13.0631 9.50022 13.2152 9.133 13.486 8.86224C13.7567 8.59148 14.124 8.43937 14.5069 8.43937C14.8898 8.43937 15.257 8.59148 15.5278 8.86224C15.7985 9.133 15.9506 9.50022 15.9506 9.88312Z"/></g></symbol><symbol viewBox="0 0 30 30" id="youtube"><g clip-path="url(#iclip0_13354_483)"><path d="M29.3748 8.1336C29.2049 7.52764 28.874 6.97903 28.4173 6.5461C27.9477 6.09986 27.372 5.78065 26.7448 5.6186C24.3973 4.99985 14.9923 4.99985 14.9923 4.99985C11.0715 4.95524 7.15158 5.15144 3.2548 5.58735C2.62753 5.76137 2.053 6.08771 1.58229 6.53735C1.11979 6.98235 0.784795 7.5311 0.609795 8.13235C0.189411 10.397 -0.0148401 12.6965 -0.000205083 14.9999C-0.0152051 17.3011 0.188545 19.5999 0.609795 21.8674C0.781045 22.4661 1.11479 23.0124 1.57854 23.4536C2.04229 23.8949 2.6198 24.2136 3.2548 24.3824C5.63354 24.9999 14.9923 24.9999 14.9923 24.9999C18.9181 25.0445 22.843 24.8483 26.7448 24.4124C27.372 24.2503 27.9477 23.9311 28.4173 23.4849C28.8739 23.052 29.2044 22.5033 29.3735 21.8974C29.8049 19.6335 30.0146 17.3331 29.9998 15.0286C30.0322 12.7144 29.8228 10.4031 29.3748 8.13235V8.1336ZM12.0023 19.2799V10.7211L19.8273 15.0011L12.0023 19.2799Z"/></g><defs><clipPath id="iclip0_13354_483"><path d="M0 0H30V30H0z"/></clipPath></defs></symbol></svg>