<?xml version="1.0" encoding="utf-8"?>
<!-- Generator: Adobe Illustrator 27.2.0, SVG Export Plug-In . SVG Version: 6.00 Build 0)  -->
<svg version="1.1" id="Слой_1" xmlns="http://www.w3.org/2000/svg" xmlns:xlink="http://www.w3.org/1999/xlink" x="0px" y="0px"
	 viewBox="0 0 60 60" style="enable-background:new 0 0 60 60;" xml:space="preserve">
<style type="text/css">
	.st0{fill-rule:evenodd;clip-rule:evenodd;fill:#EC1B2E;}
</style>
<g id="Frame_42">
	<path id="Subtract" class="st0" d="M52.5,5.5c0-0.5-0.3-1-0.7-1.3C51.5,4,49.8,4,30,4C9.5,4,8.1,4,7.8,4.5c0,0.1-0.1,0.2-0.1,0.3
		c-0.4,0.7-0.3,1,1.3,3.8c3.1,5.3,4.8,8.2,4.8,8.3c0,0-2.9,0.1-6.4,0.1c-6.3,0-6.4,0-6.7,0.3C0.3,17.4,0,18,0,18.4
		c0,0.3,0.8,1.7,3.2,5.8c0.5,0.9,1.7,2.9,2.6,4.4c0.9,1.5,2.6,4.5,3.8,6.5c1.2,2,3.5,6,5.2,8.9c1.7,2.9,3.3,5.7,3.6,6.2
		s1.1,2,1.8,3.1c1.3,2.3,1.6,2.6,2.5,2.6c0.4,0,0.6-0.1,0.9-0.3c0.2-0.2,1.4-2.2,2.7-4.4c3.5-6.1,3.8-6.5,3.8-6.5
		c0,0,0.3,0.5,0.7,1.1c3.6,6.3,5.5,9.5,5.8,9.8c0.3,0.3,0.5,0.3,0.9,0.3c0.8,0,1.1-0.3,2.7-3c1.5-2.7,2.9-5,7.5-12.9
		c1.8-3.1,4.5-7.7,5.9-10.1c1.4-2.4,3.3-5.7,4.2-7.3c2.4-4.1,2.4-4.1,2.2-4.7c-0.1-0.3-0.3-0.6-0.5-0.8L59,16.9h-6.4
		c-5.1,0-6.4,0-6.3-0.2c0.1-0.2,0.9-1.6,4.5-7.9C52,6.8,52.5,5.8,52.5,5.5z M20.7,14.5c-0.8-1.3-1.5-2.6-1.7-2.9L18.7,11H30h11.3
		l-0.4,0.7c-0.2,0.4-1,1.7-1.7,2.9L38,16.9l-8,0l-8,0L20.7,14.5z M12.1,25.4c-0.3-0.5-0.7-1.1-0.7-1.3l-0.2-0.3l3.4,0l3.4,0l4,6.8
		c2.4,4.2,3.9,6.9,3.9,7c-0.1,0.2-3.1,5.4-3.2,5.6c-0.1,0.1-0.4-0.4-0.8-1.1c-1.2-2-3.9-6.6-6.6-11.3C13.8,28.5,12.4,26,12.1,25.4z
		 M30,30.4c-0.1,0-3.5-5.8-3.7-6.3c-0.1-0.2,0.1-0.2,3.7-0.2c3.2,0,3.8,0,3.7,0.2c0,0.1-0.7,1.3-1.5,2.7c-0.8,1.4-1.6,2.8-1.8,3.1
		C30.3,30.1,30.1,30.4,30,30.4z M38.6,29.8c1.7-3,3.2-5.5,3.3-5.7c0.2-0.3,0.2-0.3,3.5-0.3c3.1,0,3.3,0,3.3,0.2
		c-0.1,0.2-1,1.9-4.5,7.8c-0.7,1.3-2.5,4.3-3.9,6.8c-1.4,2.5-2.6,4.5-2.7,4.6c-0.1,0.1-3.4-5.4-3.4-5.7c0-0.1,0.3-0.6,0.7-1.3
		C35.2,35.7,36.9,32.8,38.6,29.8z"/>
</g>
<image style="overflow:visible;" width="1920" height="1920" xlink:href="../../w logo/vecteezy_the-initials-w-logo-is-simple-and-modern8868__114/vecteezy_the-initials-w-logo-is-simple-and-modern8868_.jpg"  transform="matrix(1 0 0 1 -865.4706 -992.2941)">
</image>
</svg>
